<svg xmlns="http://www.w3.org/2000/svg" viewBox="0 0 25 25">
    <defs>
        <style>.cls-1{fill:#4388d6;}</style>
    </defs>
    <g id="Layer_2" data-name="Layer 2">
        <g id="Layer_1-2" data-name="Layer 1">
            <path class="cls-1"
                d="M0,12.65A12.63,12.63,0,0,0,9.8,25a.48.48,0,0,1-.16-.35V22.29a.45.45,0,0,0-.4-.46,8.93,8.93,0,0,1-3.83-1.49.44.44,0,0,1-.2-.42,2,2,0,0,0-.53-1.25A.46.46,0,0,1,5.31,18a3.77,3.77,0,0,1,.94,1c.44,1.32,2.2,1.29,3,1.2a.45.45,0,0,0,.4-.45v-.94a.48.48,0,0,0-.38-.46c-6.3-1.24-4.08-7.86-3.66-9a.47.47,0,0,0,0-.33c-.32-1,.26-2.81.52-3.54a.46.46,0,0,1,.49-.3,5.24,5.24,0,0,1,2.3,1,.44.44,0,0,0,.37.07,13.44,13.44,0,0,1,6.87,0,.42.42,0,0,0,.46-.14,3.85,3.85,0,0,1,2.52-1s1.87,2.35.74,4c0,.06,0,.13,0,.19A8.43,8.43,0,0,1,20.45,15c-.45,2.31-3.23,3.14-4.22,3.36a.47.47,0,0,0-.35.45v5.72a.46.46,0,0,1-.28.43A12.67,12.67,0,0,0,12.5,0,12.58,12.58,0,0,0,0,12.65" />
        </g>
    </g>
</svg>