<svg id="Layer_1" height="512" viewBox="0 0 512 512" width="512" xmlns="http://www.w3.org/2000/svg" data-name="Layer 1"><g fill="#d4e1f4"><path d="m79.42 272.9a15.164 15.164 0 0 1 -6.42-1.228v43.328h30v-56h-6.05c-2.8 8-10.05 13.9-17.53 13.9z"/><path d="m64.816 236.687c-3.509-5.612-9.326-9.257-15.336-9.257-10.08 0-18.24 10.23-18.24 22.84s8.16 22.83 18.24 22.83c6.01 0 11.828-3.633 15.336-9.25a27.579 27.579 0 0 1 0-27.163z"/><path d="m119.73 100.71c-6 0-11.825 3.644-15.336 9.252a27.588 27.588 0 0 1 0 27.168c3.511 5.614 9.332 9.25 15.336 9.25 10.08 0 18.24-10.22 18.24-22.83s-8.16-22.84-18.24-22.84z"/><path d="m73 112.29c3-6.91 9.81-11.58 16.61-11.58a16.309 16.309 0 0 1 13.39 7.331v-49.041h-30z"/><path d="m89.61 146.38c-6.8 0-13.61-4.66-16.61-11.58v94.059a15.377 15.377 0 0 1 6.42-1.494c7.48 0 14.73 5.635 17.53 13.635h6.05v-101.95a16.313 16.313 0 0 1 -13.39 7.33z"/></g><path d="m352.2 94.053a22.937 22.937 0 0 0 -18.2 9.17v-44.277a6.166 6.166 0 0 0 -6.242-5.946h-42.725c5.183-5 8.375-11.076 8.375-17.7 0-13.382-12.92-24.283-28.8-24.283s-28.8 10.908-28.8 24.29c0 6.629 3.191 12.7 8.373 17.7h-86.095c5.184-5 8.376-11.076 8.376-17.7 0-13.382-12.92-24.283-28.8-24.283s-28.8 10.908-28.8 24.29c0 6.629 3.191 12.7 8.373 17.7h-44.111a6.062 6.062 0 0 0 -6.124 5.932v53.347a6.058 6.058 0 0 0 11.527 2.545c2.276-4.861 6.782-8.127 11.19-8.127 6.635 0 12.248 7.71 12.248 16.837s-5.6 16.836-12.237 16.836c-4.408 0-8.9-3.266-11.172-8.127a6.075 6.075 0 0 0 -11.556 2.543v52.2h.034c-.013 0-.034 0-.034.017v42.783c-5-5.179-10.968-8.367-17.581-8.367-13.367 0-24.212 12.936-24.212 28.837s10.831 28.83 24.193 28.83c6.615 0 12.6-3.187 17.6-8.365v44.165a6.186 6.186 0 0 0 6.118 6.1h53.265a6.045 6.045 0 0 0 2.55-11.5c-4.854-2.279-8.115-6.794-8.115-11.215 0-6.651 7.694-12.276 16.8-12.276s16.8 5.616 16.8 12.267c0 4.421-3.262 8.921-8.116 11.2a6.058 6.058 0 0 0 2.553 11.524h51.951a6.253 6.253 0 0 0 6.194-6.1v-55.5a6.523 6.523 0 0 0 -6.194-6.4h-.529a6.188 6.188 0 0 0 -5.669 4.235c-1.942 5.601-6.908 9.765-11.808 9.765-6.636 0-12.241-7.66-12.241-16.786s5.6-16.812 12.241-16.812c4.9 0 9.861 4.014 11.805 9.616a5.953 5.953 0 0 0 5.669 3.98h.529a6.06 6.06 0 0 0 6.197-5.867v-48.131h47.788a6.17 6.17 0 0 0 6.212-5.983v-6.86a6.1 6.1 0 0 0 -4.127-5.665c-5.6-1.955-9.713-6.933-9.713-11.837 0-6.651 7.668-12.27 16.775-12.27s16.788 5.619 16.788 12.27c0 4.9-4.084 9.882-9.681 11.838a6.019 6.019 0 0 0 -4.042 5.664v6.86a6.009 6.009 0 0 0 6.029 5.983h.02l54.85-.176a6.1 6.1 0 0 0 6.1-5.991v-44.277a22.937 22.937 0 0 0 18.2 9.17c13.367 0 24.241-12.936 24.241-28.837s-10.87-28.836-24.24-28.836zm-157.2 130.965a23.924 23.924 0 0 0 -12.1-3.589c-13.367 0-24.29 12.936-24.29 28.837s10.948 28.834 24.314 28.834a23.855 23.855 0 0 0 12.076-3.584v33.484h-31.323a21.807 21.807 0 0 0 2.744-10.683c0-13.382-12.921-24.294-28.8-24.294s-28.8 10.924-28.8 24.306a21.751 21.751 0 0 0 2.741 10.671h-32.562v-49.6c0-3.313-2.568-6.4-5.882-6.4h-6.165a6.188 6.188 0 0 0 -5.669 4.234c-1.942 5.6-6.908 9.768-11.806 9.768-6.635 0-12.241-7.66-12.241-16.786s5.606-16.816 12.241-16.816c4.9 0 9.862 4.014 11.807 9.617a5.952 5.952 0 0 0 5.668 3.983h6.165a5.79 5.79 0 0 0 5.882-5.869v-48.131h48.841a6.123 6.123 0 0 0 6.159-5.983v-6.86a6.072 6.072 0 0 0 -4.1-5.664c-5.6-1.956-9.7-6.934-9.7-11.838 0-6.651 7.674-12.27 16.782-12.27s16.791 5.619 16.791 12.27c0 4.9-4.109 9.882-9.7 11.838a6.04 6.04 0 0 0 -4.073 5.664v6.86a6.057 6.057 0 0 0 6.083 5.983h48.917zm5.811-99.018a5.862 5.862 0 0 0 -5.811 6.024v48.976h-38.417c5.656-5 9.18-11.4 9.18-18.354 0-13.382-12.92-24.265-28.8-24.265s-28.8 10.881-28.8 24.263c0 6.957 3.525 13.356 9.179 18.356h-38.342v-31.355a21.814 21.814 0 0 0 10.67 2.739c13.367 0 24.272-12.936 24.272-28.836s-10.921-28.837-24.287-28.837a21.747 21.747 0 0 0 -10.655 2.74v-32.451h49.54c3.314 0 6.46-2.74 6.46-6.054v-6.175a6.219 6.219 0 0 0 -4.259-5.667c-5.593-1.945-9.767-6.922-9.767-11.834 0-6.651 7.637-12.27 16.744-12.27s16.773 5.619 16.773 12.27c0 4.91-3.965 9.887-9.559 11.835a5.915 5.915 0 0 0 -3.932 5.666v6.175a5.863 5.863 0 0 0 5.781 6.054h48.219v48.755a6.058 6.058 0 0 0 5.811 6.245h6.85a6.113 6.113 0 0 0 5.666-4.149c1.952-5.607 6.919-9.737 11.808-9.737 6.636 0 12.241 7.679 12.241 16.806s-5.605 16.821-12.241 16.821c-4.889 0-9.856-4.088-11.808-9.7a6.018 6.018 0 0 0 -5.666-4.041zm151.271 13.726c-4.89 0-9.856-4.081-11.809-9.687a6.01 6.01 0 0 0 -5.666-4.039h-6.849a5.818 5.818 0 0 0 -5.758 6.024v48.829l-38.306.128a24.17 24.17 0 0 0 9.077-18.326c0-13.383-12.951-24.27-28.832-24.27s-28.816 10.879-28.816 24.261c0 6.957 3.509 13.354 9.164 18.354h-37.287v-38.444a22.987 22.987 0 0 0 18.23 9.17c13.366 0 24.194-12.936 24.194-28.837s-10.8-28.836-24.171-28.836a23.032 23.032 0 0 0 -18.253 9.17v-38.223h48.486c3.314 0 5.514-2.74 5.514-6.054v-6.175a5.79 5.79 0 0 0 -3.786-5.667c-5.592-1.945-9.53-6.922-9.53-11.834 0-6.651 7.755-12.27 16.862-12.27s16.832 5.619 16.832 12.27c0 4.909-3.909 9.887-9.5 11.835a5.866 5.866 0 0 0 -3.878 5.666v6.175a5.82 5.82 0 0 0 5.728 6.054h48.272v48.755a6.014 6.014 0 0 0 5.758 6.245h6.849a6.112 6.112 0 0 0 5.666-4.149c1.953-5.607 6.919-9.737 11.809-9.737 6.635 0 12.241 7.679 12.241 16.806s-5.606 16.806-12.241 16.806z" fill="#0635c9"/><path d="m452.515 486.345a15.089 15.089 0 1 0 -14.773-15.086 14.948 14.948 0 0 0 14.773 15.086zm0-18.172a3.1 3.1 0 1 1 -2.773 3.086 2.946 2.946 0 0 1 2.773-3.086z" fill="#1ae5be"/><path d="m481 347.576a6 6 0 0 0 -6 6v71.757a6 6 0 1 0 12 0v-71.757a6 6 0 0 0 -6-6z" fill="#1ae5be"/><path d="m481 324.008a6 6 0 0 0 -6 6v4.885a6 6 0 1 0 12 0v-4.885a6 6 0 0 0 -6-6z" fill="#1ae5be"/><path d="m473.989 440h-8.989v-106.588a29.478 29.478 0 0 0 -8.592-20.631 5.329 5.329 0 0 0 -.488-.486l-65.92-52.748v-11.665a6.139 6.139 0 0 0 -6.272-5.882h-41.21c5.078-5 8.212-10.766 8.212-17.208 0-12.88-12.411-23.389-27.666-23.389s-27.666 10.523-27.666 23.4c0 6.442 3.135 12.193 8.212 17.193h-41.21c-3.313 0-6.4 2.568-6.4 5.882v39.884a21.864 21.864 0 0 0 -16.263-7.485c-12.866 0-23.233 12.426-23.233 27.7s10.317 27.7 23.183 27.7a21.973 21.973 0 0 0 16.313-7.477v41.2c0 3.314 3.087 5.6 6.4 5.6h50.612a5.818 5.818 0 0 0 2.55-11.132c-4.509-2.118-7.539-6.238-7.539-10.326 0-6.157 7.174-11.334 15.665-11.334s15.666 5.215 15.666 11.372c0 4.087-3.03 8.263-7.54 10.382a5.752 5.752 0 0 0 -3.305 6.541 5.831 5.831 0 0 0 5.856 4.5h3.635v30.888a29.488 29.488 0 0 0 23 28.831v5.278h-5.122a9.907 9.907 0 0 0 -9.878 9.878v41.457a9.665 9.665 0 0 0 9.665 9.665h118.626a9.737 9.737 0 0 0 9.709-9.709v-41.28a10.04 10.04 0 0 0 -10.011-10.011zm-150.3-109.767c-15.254 0-27.665 10.28-27.665 23.16a20.6 20.6 0 0 0 2.412 9.607h-30.436v-46.34a5.388 5.388 0 0 0 -5.6-5.66h-5.858a5.849 5.849 0 0 0 -5.669 3.864c-1.8 5.207-6.405 8.9-10.936 8.9-6.143 0-11.333-7.232-11.333-15.742s5.19-15.721 11.333-15.721c4.529 0 9.129 3.619 10.937 8.827a5.857 5.857 0 0 0 5.668 3.872h5.858a5.42 5.42 0 0 0 5.6-5.7v-45.3h46.4c3.313 0 5.6-2.805 5.6-6.118v-6.519a5.825 5.825 0 0 0 -3.822-5.664c-5.2-1.818-8.879-6.429-8.879-10.966 0-6.157 7.224-11.359 15.715-11.359s15.691 5.2 15.691 11.359c0 4.537-3.629 9.148-8.831 10.966a5.87 5.87 0 0 0 -3.874 5.664v6.519a5.879 5.879 0 0 0 5.73 6.118h46.27v29.458c-4-2.03-7.349-3.177-11.242-3.177-12.866 0-23.4 12.426-23.4 27.7 0 11.317 5.572 21.2 14.142 25.486a24.047 24.047 0 0 0 4.093 5.334l16.407 16.325v7.874h-29.059a20.6 20.6 0 0 0 2.413-9.607c0-12.88-12.411-23.16-27.666-23.16zm148.311 158.767h-114v-37h21a6 6 0 0 0 0-12h-6v-10.664a5.835 5.835 0 0 0 -5.8-6 17.274 17.274 0 0 1 -17.2-17.448v-30.888h31.8c-4.052 12-2.631 24.01 4.022 34.012a6.091 6.091 0 0 0 5 2.777 5.922 5.922 0 0 0 4.99-9.249 25.828 25.828 0 0 1 -1.736-25.473 28.158 28.158 0 0 0 2.74-12.218c0-.116 0-.229-.01-.344l-.066-1.145a17.243 17.243 0 0 0 -5.011-11.195l-21.791-21.841a11.623 11.623 0 0 1 0-16.394l.353-.354 51.988 41.26a6 6 0 1 0 7.46-9.4l-56.183-44.589a6 6 0 0 0 -7.978.462l-4.136 4.145a23.42 23.42 0 0 0 -5.322 8.265 20.425 20.425 0 0 1 -.828-5.74c0-8.509 5.19-15.7 11.333-15.7 4.529 0 9.128 3.629 10.935 8.837a5.866 5.866 0 0 0 5.665 3.884h.5c3.314 0 6.272-2.386 6.272-5.7v-24.39l58.208 46.513a17.407 17.407 0 0 1 4.795 11.989v106.588h-32a6 6 0 0 0 0 12h51z" fill="#1ae5be"/></svg>